<?xml version="1.0" standalone="no"?><!DOCTYPE svg PUBLIC "-//W3C//DTD SVG 1.1//EN" "http://www.w3.org/Graphics/SVG/1.1/DTD/svg11.dtd"><svg class="icon" width="200px" height="200.00px" viewBox="0 0 1024 1024" version="1.1" xmlns="http://www.w3.org/2000/svg"><path fill="#333333" d="M947.668114 435.887543c9.230629-39.511771 2.56-98.377143-81.642057-154.2144L549.5808 72.762514l-0.234057-0.190171a59.201829 59.201829 0 0 0-35.576686-12.5952 58.514286 58.514286 0 0 0-40.213943 13.838628l-187.099428 123.523658V65.755429c0-16.149943-3.072-27.969829-19.221943-27.969829H217.526857c-16.149943 0-18.826971 11.805257-18.826971 27.969829v189.527771l-39.892115 26.331429a51.126857 51.126857 0 0 0-3.569371 2.56l-1.7408 1.345828c-46.431086 35.9424-94.442057 73.098971-76.434286 150.367086 10.708114 45.831314 44.821943 74.693486 92.379429 79.813486v399.798857H115.126857a29.257143 29.257143 0 0 0 0 58.514285h789.942857a29.257143 29.257143 0 0 0 0-58.514285h-48.084114V515.598629c46.709029-5.617371 80.135314-34.4064 90.682514-79.711086z m-813.611885-13.282743c-9.610971-41.237943 9.845029-57.782857 54.242742-92.16l317.586286-211.499886v-0.497371l7.314286 0.248686 7.314286-0.248686v0.497371l316.737828 211.499886c29.769143 19.748571 64.848457 50.907429 55.208229 92.16-6.304914 27.062857-27.077486 35.664457-51.580343 35.664457-12.843886 0-27.4432-2.3552-41.5744-5.675886l-286.734629-175.542857-286.602971 175.542857c-14.145829 3.320686-28.335543 5.675886-41.179429 5.675886-24.502857-0.014629-44.412343-8.616229-50.731885-35.664457zM403.499886 898.486857V727.712914a46.270171 46.270171 0 0 1 46.270171-46.270171h126.888229a46.270171 46.270171 0 0 1 46.270171 46.270171V898.486857c0 6.026971-1.2288 11.746743-3.335314 17.013029H406.8352a45.6704 45.6704 0 0 1-3.335314-17.013029z m246.593828 17.013029c1.258057-5.485714 2.091886-11.146971 2.091886-17.013029V727.712914a75.527314 75.527314 0 0 0-75.527314-75.527314h-126.888229a75.527314 75.527314 0 0 0-75.527314 75.527314V898.486857c0 5.866057 0.8192 11.527314 2.091886 17.013029H227.957029V511.941486c3.6864-0.731429 7.3728-1.462857 11.264-2.384457a59.318857 59.318857 0 0 0 17.232457-7.0656l255.926857-156.818286 255.941486 156.818286c5.3248 3.262171 11.146971 5.646629 17.217828 7.0656 4.476343 1.038629 8.747886 1.916343 12.946286 2.735542v403.207315H650.093714z"  /><path fill="#333333" d="M462.014171 796.042971a14.628571 14.628571 0 0 0-14.628571 14.628572v14.628571a14.628571 14.628571 0 1 0 29.257143 0v-14.628571a14.628571 14.628571 0 0 0-14.628572-14.628572zM451.584 520.528457h131.657143a14.628571 14.628571 0 1 0 0-29.257143h-131.657143a14.628571 14.628571 0 1 0 0 29.257143zM627.126857 549.7856h-219.428571a14.628571 14.628571 0 1 0 0 29.257143h219.428571a14.628571 14.628571 0 1 0 0-29.257143z"  /></svg>