<?xml version="1.0" standalone="no"?><!DOCTYPE svg PUBLIC "-//W3C//DTD SVG 1.1//EN" "http://www.w3.org/Graphics/SVG/1.1/DTD/svg11.dtd"><svg class="icon" width="200px" height="200.00px" viewBox="0 0 1024 1024" version="1.1" xmlns="http://www.w3.org/2000/svg"><path fill="#333333" d="M950.513 1023.96l-287.368-0.337c-39.706 0-71.786-32.303-71.786-71.898l0.337-287.369c0-39.706 32.304-71.786 71.899-71.786l287.368 0.337c39.706 0 71.785 32.19 71.785 71.898l-0.336 287.368c-0.001 39.707-32.192 71.787-71.899 71.787z m0.449-359.155l-287.368-0.336-0.337 287.367 287.368 0.337 0.337-287.368z m0.112-143.683l-287.256-0.337c-39.707 0-71.786-32.191-71.786-71.898l0.112-126.186-270.208 269.533 126.186 0.113c39.706 0 71.786 32.191 71.786 71.898l-0.337 287.368c0 39.707-32.303 71.786-71.898 71.786l-287.368-0.336c-39.706 0-71.786-32.304-71.786-71.899l0.337-287.368c0-39.706 32.303-71.786 71.898-71.786l126.299 0.113L0.02 304.417 305.112 0l287.032 287.705 0.113-126.186c0-39.707 32.304-71.786 71.898-71.786l287.368 0.336c39.707 0 71.786 32.192 71.786 71.899l-0.336 287.368c-0.001 39.706-32.193 71.786-71.899 71.786z m-790.32 142.674l-0.336 287.368 287.367 0.337 0.337-287.368-287.368-0.337z m144.358-562.174l-203.469 203.02L304.55 508.108l203.468-202.907-202.906-203.58z m646.41 60.233l-287.368-0.336-0.336 287.368 287.368 0.336 0.336-287.368z" /></svg>