<?xml version="1.0" standalone="no"?><!DOCTYPE svg PUBLIC "-//W3C//DTD SVG 1.1//EN" "http://www.w3.org/Graphics/SVG/1.1/DTD/svg11.dtd"><svg class="icon" width="200px" height="200.00px" viewBox="0 0 1024 1024" version="1.1" xmlns="http://www.w3.org/2000/svg"><path fill="#333333" d="M903.168 998.4c-25.6 0-46.592-19.968-48.128-45.568a343.808 343.808 0 0 0-343.04-323.584c-181.76 0-332.288 142.336-343.04 323.584-1.536 26.624-24.576 46.592-50.688 45.568a48.4352 48.4352 0 0 1-45.568-50.688c13.312-232.448 206.336-414.72 439.296-414.72s425.984 182.272 439.296 414.72a48.128 48.128 0 0 1-45.568 50.688h-2.56z"  /><path fill="#333333" d="M512 629.76a302.592 302.592 0 0 1-302.08-302.08C209.92 161.28 345.6 25.6 512 25.6c166.4 0 302.08 135.68 302.08 302.08 0 166.4-135.68 302.08-302.08 302.08z m0-507.904c-113.152 0-205.824 92.16-205.824 205.824a205.824 205.824 0 0 0 411.648 0c0-113.664-92.672-205.824-205.824-205.824z"  /></svg>