<?xml version="1.0" standalone="no"?><!DOCTYPE svg PUBLIC "-//W3C//DTD SVG 1.1//EN" "http://www.w3.org/Graphics/SVG/1.1/DTD/svg11.dtd"><svg class="icon" width="200px" height="200.00px" viewBox="0 0 1024 1024" version="1.1" xmlns="http://www.w3.org/2000/svg"><path fill="#1296db" d="M512 1024C229.6832 1024 0 794.29632 0 512S229.6832 0 512 0s512 229.70368 512 512-229.66272 512-512 512z m0-921.6C286.14656 102.4 102.4 286.14656 102.4 512s183.74656 409.6 409.6 409.6 409.6-183.74656 409.6-409.6S737.85344 102.4 512 102.4zM439.58272 584.41728c-39.99744-39.99744-144.81408-289.62816-144.81408-289.62816s249.6512 104.81664 289.62816 144.81408a102.4 102.4 0 0 1-144.81408 144.81408z" /></svg>